<svg xmlns="http://www.w3.org/2000/svg" version="1" width="266" height="52"><path d="M13.6 41h241z" fill="#f58320"/><path d="M13.6 39.3h241v3.5h-241z" fill="#f7941e"/><path d="M18.8 37.4l6-24.2h10.8L37 7.6H7.4L6 13.2h10.4l-6 24.2z" fill="#094c7c"/><path d="M30 37.4l5.5-21.6H44l-5.5 21.6zM40.8 13c-2.5 0-4.3-1.4-4.3-3.3 0-2.3 2.4-4 5.2-4 2.6 0 4.5 1.4 4.5 3.4 0 2.6-2.5 4-5.3 4zM58 10l-1.4 5.8h6.2l-1.3 5h-6.2l-2 7.2c-.2 1-.4 2-.4 2.7 0 1 .5 1.8 2.4 1.8h2.3l-1 5c-1 .2-3.2.4-5 .4-5 0-7.5-2-7.5-4.8 0-1 0-2.3.6-4l2.2-8.5h-3.7l1.2-5h3.7l1-4z" fill="#094c7c"/><path d="M77.4 37.4c0-1.2.3-2.7.4-4.3-2.8 3.7-6.6 5-10 5-5 0-8.7-3-8.7-7.6 0-7.3 6.6-15 20.8-15 3.5 0 7.2.4 9.5 1l-3 11.3c-.6 2.8-1.2 7-1 9.7zm2.4-17c-.7-.2-1.4-.3-2.3-.3-5.5 0-9.5 5.2-9.5 9.2 0 2 1 3.6 3.5 3.6s5.8-2.2 7-7.5zM87 37.4L91 22.8c.7-2.7 1.2-5 1.5-7h7.6l-.7 3.6c3-2.8 6.5-4 10.3-4 4.7 0 7.4 2 7.4 5.8 0 1-.2 2.6-.5 3.7l-3.2 12.4h-8.5l3-12c.2-.7.3-1.5.3-2.3 0-1.5-.6-2.6-2.8-2.6-2.7 0-6 2.7-7.2 7.4l-2.3 9.6zM125.5 30.5c2.4 1 5.7 2 9.4 2 3.2 0 6.2-1.2 6.2-3.5 0-1.7-1.7-2.8-5.4-4.3-4.2-1.6-8.2-4-8.2-8 0-6 7-9.6 15.7-9.6 4.7 0 7.6 1 9.3 1.6L150 14c-1.4-.6-4-1.4-7.5-1.4-4 0-6 1.5-6 3 0 2 2.4 3 5.8 4.4 5 2 8 4.3 8 8 0 6.5-7.5 10-16.3 10-5.5 0-9.5-1.2-11.3-2.2zM149.6 37.4l8-31.4h8.5L163 18.6c2.6-2 5.6-3.3 9.4-3.3 4.5 0 7.2 2 7.2 6 0 1-.2 2.6-.5 3.7l-3.2 12.4h-8.5l3-11.8.3-2.7c0-1.5-.7-2.6-3-2.6-3 0-6 2.8-7 7l-2.5 10zM192 38c-7.3 0-12.2-3.7-12.2-9 0-7.5 7-13.7 17.3-13.7 8 0 12.4 4 12.4 9 0 7.8-7.3 13.6-17.2 13.6zm1.2-5c4.6 0 7.3-5 7.3-8.7 0-2-1.2-4-4.6-4-5 0-7.5 5.2-7.5 8.5 0 2.6 1.8 4.3 4.7 4.3zM205.6 46.2l5.6-22c.7-2.6 1.3-6.4 1.7-8.6h7.5L220 19c2.5-2.4 6-3.7 9.4-3.7 6.3 0 9.3 3.8 9.3 8.2C238.7 31 232 38 222 38c-2.4 0-4.4-.5-5.4-1l-2.5 9.2h-8.4zm12.2-14c1 .5 2.2 1 4 1 4.5 0 8-5 8-9.2 0-1.7-1-3.5-3.7-3.5-3 0-6 2.6-7 7z" fill="#094c7c"/><path d="M238.5 31.8c1.7.6 4.8 1.5 7.6 1.5 2.4 0 3.7-1 3.7-2s-1-1.8-3.6-2.8c-3.2-1.2-6-3-6-5.7 0-4.5 5.2-7.5 12.7-7.5 3.4 0 6 .5 7.4 1l-2 4.6c-1-.5-3.2-1-5.7-1-2.3 0-3.7.7-3.7 2 0 .8 1 1.5 3.4 2.3 3.2 1.2 6.6 3 6.6 6 0 5-5.7 7.7-13.4 7.6-3.6 0-7-.8-8.8-1.8z" fill="#094c7c"/></svg>